<?xml version="1.0" standalone="no"?>
<!DOCTYPE svg PUBLIC "-//W3C//DTD SVG 20010904//EN"
 "http://www.w3.org/TR/2001/REC-SVG-20010904/DTD/svg10.dtd">
<svg version="1.0" xmlns="http://www.w3.org/2000/svg"
 width="700.000000pt" height="700.000000pt" viewBox="0 0 700.000000 700.000000"
 preserveAspectRatio="xMidYMid meet">
<metadata>
Created by potrace 1.11, written by Peter Selinger 2001-2013
</metadata>
<g transform="translate(0.000000,700.000000) scale(0.100000,-0.100000)"
fill="#000000" stroke="none">
<path d="M0 3500 l0 -3500 3500 0 3500 0 0 3500 0 3500 -3500 0 -3500 0 0
-3500z m2950 2293 l-1 -328 -299 -244 -299 -244 67 -55 c37 -30 172 -140 300
-245 l232 -190 0 -713 0 -714 -435 0 -435 0 0 1530 0 1530 435 0 435 0 0 -327z
m1969 0 l0 -328 -301 -244 c-238 -195 -297 -247 -286 -255 8 -6 144 -117 301
-245 l287 -235 0 -713 0 -713 -435 0 -435 0 0 1530 0 1530 435 0 435 0 -1
-327z m-3324 -3248 c408 -492 957 -796 1600 -887 134 -19 503 -16 646 5 598
89 1131 383 1530 844 52 60 98 108 104 107 14 -1 534 -367 535 -376 0 -15
-145 -184 -264 -307 -523 -535 -1204 -859 -1961 -932 -195 -19 -586 -6 -775
24 -621 102 -1167 363 -1632 781 -102 92 -308 317 -364 398 -27 38 -27 39 -8
52 372 263 520 366 525 364 3 -2 32 -34 64 -73z"/>
</g>
</svg>
