<svg width="202" height="34" viewBox="0 0 202 34" fill="none" xmlns="http://www.w3.org/2000/svg">
<path fill-rule="evenodd" clip-rule="evenodd" d="M84.62 30.58H88.79V29.9H85.73L86.78 28.84C87.94 27.66 88.64 26.86 88.64 25.7C88.64 24.5 87.91 23.75 86.56 23.75C85.8 23.75 85.12 24.09 84.7 24.36L84.93 24.99C85.32 24.72 85.86 24.44 86.43 24.44C87.38 24.44 87.81 24.88 87.81 25.77C87.81 26.73 87.17 27.46 86.22 28.45L84.62 30.11V30.58ZM97.23 26.48C95.89 26.33 94.1 25.44 94.06 24.21H96.87V23.58H90.43V24.21H93.26C93.22 25.43 91.53 26.35 90.1 26.5L90.45 27.14C91.94 26.89 93.3 25.99 93.65 25.17C94.05 25.99 95.44 26.87 96.87 27.12L97.23 26.48ZM94.02 31.7V28.57H97.6V27.93H89.71V28.57H93.26V31.7H94.02ZM102.8 27.78V23.73H98.66V27.78H102.8ZM102.04 27.15H99.42V24.36H102.04V27.15ZM106.41 26.21V25.57H105.08V22.96H104.32V29.31H105.08V26.21H106.41ZM105.42 31.4V30.77H100.37V28.71H99.61V31.4H105.42ZM109.07 23.72C107.8 23.72 107.15 24.96 107.15 26.71C107.15 28.47 107.8 29.7 109.07 29.7C110.27 29.7 110.91 28.63 110.99 27.05H111.93V31.28H112.67V23.13H111.93V26.42H110.99C110.93 24.83 110.28 23.72 109.07 23.72ZM110.24 26.71C110.24 28.13 109.78 29.03 109.07 29.03C108.37 29.03 107.92 28.13 107.92 26.71C107.92 25.3 108.37 24.39 109.07 24.39C109.78 24.39 110.24 25.3 110.24 26.71ZM114.38 31.7V22.96H113.63V31.7H114.38ZM125.43 27.43V22.96H124.67V27.43H125.43ZM123.51 26.66C122.43 26.27 121.28 25.42 121.28 24.01V23.26H120.51V24.04C120.51 25.44 119.4 26.49 118.27 26.94L118.69 27.52C119.74 27.02 120.65 26.17 120.92 25.27C121.33 26.19 122.21 26.91 123.08 27.25L123.51 26.66ZM125.76 31.6V30.98H120.51V30H125.43V27.91H119.73V28.53H124.67V29.43H119.75V31.6H125.76ZM133.84 26.98V23.45H127.91V26.98H133.84ZM133.08 26.35H128.68V24.08H133.08V26.35ZM131.25 31.71V28.73H134.83V28.09H126.94V28.73H130.49V31.71H131.25ZM145.43 30C145.43 28.99 144.35 28.35 142.46 28.35C140.55 28.35 139.48 28.99 139.48 30C139.48 31.02 140.55 31.66 142.46 31.66C144.35 31.66 145.43 31.02 145.43 30ZM142.46 28.99C143.84 28.99 144.65 29.36 144.65 30C144.65 30.65 143.84 31.03 142.46 31.03C141.08 31.03 140.27 30.65 140.27 30C140.27 29.36 141.08 28.99 142.46 28.99ZM142.67 27H144.6V28.48H145.36V22.96H144.6V24.54H142.81V25.17H144.6V26.37H142.67V27ZM142.72 23.64H138.7V24.29H141.86C141.6 25.77 140.12 27.22 138.32 27.72L138.7 28.37C141.01 27.56 142.59 25.84 142.72 23.64ZM154.02 31.57V28.83H148.37V31.57H154.02ZM153.26 30.94H149.13V29.46H153.26V30.94ZM154.01 28.36V22.96H153.25V25.78H151.75V26.41H153.25V28.36H154.01ZM150.69 23.79V23.15H148.18V23.79H150.69ZM151.96 25.03V24.41H146.86V25.03H151.96ZM151.5 26.86C151.5 25.96 150.61 25.42 149.43 25.42C148.25 25.42 147.36 25.96 147.36 26.86C147.36 27.74 148.26 28.3 149.43 28.3C150.61 28.3 151.5 27.73 151.5 26.86ZM150.75 26.86C150.75 27.39 150.13 27.71 149.43 27.71C148.76 27.71 148.11 27.39 148.11 26.86C148.11 26.32 148.75 26.01 149.43 26.01C150.13 26.01 150.75 26.32 150.75 26.86ZM163.41 27.38V26.74H155.52V27.38H163.41ZM162.53 24.6C162.53 23.64 161.37 23.08 159.47 23.08C157.59 23.08 156.43 23.64 156.43 24.6C156.43 25.56 157.59 26.11 159.47 26.11C161.37 26.11 162.53 25.56 162.53 24.6ZM159.47 23.7C160.86 23.7 161.76 24.05 161.76 24.6C161.76 25.14 160.86 25.48 159.47 25.48C158.1 25.48 157.21 25.14 157.21 24.6C157.21 24.05 158.1 23.7 159.47 23.7ZM162.71 31.62V31H157.2V30.12H162.42V28.16H156.42V28.77H161.66V29.54H156.44V31.62H162.71ZM171.24 27.78V23.73H167.1V27.78H171.24ZM170.48 27.15H167.86V24.36H170.48V27.15ZM174.85 26.21V25.57H173.52V22.96H172.76V29.31H173.52V26.21H174.85ZM173.86 31.4V30.77H168.81V28.71H168.05V31.4H173.86ZM182.39 27.94V27.31H177.2V24.46H182.31V23.83H176.44V27.94H182.39ZM183.34 30.5V29.86H175.45V30.5H183.34ZM191.5 31.7V22.96H190.75V31.7H191.5ZM189.77 31.26V23.17H189.03V26.11H187.48V26.75H189.03V31.26H189.77ZM188.5 28.94C187.55 28.31 186.53 27.04 186.53 25.34V23.77H185.78V25.36C185.78 27.07 184.9 28.56 183.91 29.19L184.38 29.76C185.25 29.13 185.97 27.99 186.16 26.99C186.44 27.98 187.36 29.02 188.03 29.5L188.5 28.94ZM199.84 25.81C199.84 24.46 198.59 23.54 196.68 23.54C194.8 23.54 193.54 24.46 193.54 25.81C193.54 27.16 194.8 28.06 196.68 28.06C198.58 28.06 199.84 27.16 199.84 25.81ZM199.11 25.81C199.11 26.79 198.14 27.45 196.68 27.45C195.23 27.45 194.27 26.79 194.27 25.81C194.27 24.83 195.23 24.17 196.68 24.17C198.15 24.17 199.11 24.83 199.11 25.81ZM200.64 30.59V29.95H198.66V28.32L197.9 28.3V29.95H195.46V28.3L194.7 28.32V29.95H192.75V30.59H200.64Z" fill="#ABB1B1"/>
<mask id="mask0" mask-type="alpha" maskUnits="userSpaceOnUse" x="1" y="1" width="162" height="30">
<path fill-rule="evenodd" clip-rule="evenodd" d="M81.5918 30.7514H162.183V1.00012H81.5918H1.00018V30.7514H81.5918Z" fill="white"/>
</mask>
<g mask="url(#mask0)">
<path fill-rule="evenodd" clip-rule="evenodd" d="M68.5798 30.7514C63.6887 30.7514 59.0213 28.4583 56.1195 24.5212L58.7573 22.4916C61.1115 25.5761 64.7038 27.4432 68.5798 27.4432C72.4558 27.4432 76.0482 25.5761 78.4427 22.4916L81.0811 24.5212C78.1384 28.4583 73.4911 30.7514 68.5798 30.7514ZM156.765 4.93721C160.154 4.8963 162.184 7.53467 162.184 10.863V20.7058H158.145V11.2688C158.145 9.52339 157.029 7.94049 155.223 8.02176C153.741 8.08285 152.584 9.11758 151.854 10.437V20.7058H147.795V5.24158H151.854V7.39285C153.173 5.83012 154.695 4.95739 156.765 4.93721ZM50.234 4.93721C53.6229 4.8963 55.6525 7.53467 55.6525 10.863V20.7058H51.614V11.2688C51.614 9.52339 50.4975 7.94049 48.6915 8.02176C47.21 8.08285 46.0531 9.11758 45.3227 10.437V20.7058H41.264V5.24158H45.3227V7.39285C46.6416 5.83012 48.164 4.95739 50.234 4.93721ZM90.8829 4.93721C94.2724 4.8963 96.302 7.53467 96.302 10.863V20.7058H92.2635V11.2688C92.2635 9.52339 91.1469 7.94049 89.3409 8.02176C87.8595 8.08285 86.7025 9.11758 85.9722 10.437V20.7058H81.9129V5.24158H85.9722V7.39285C87.2911 5.83012 88.8129 4.95739 90.8829 4.93721ZM62.9785 10.8428L65.9213 8.48867V5.24158H61.538V20.7058H65.9213V13.2374L62.9785 10.8428ZM124.497 11.3905C124.335 9.40176 123.462 7.61594 121.372 7.61594C119.281 7.61594 118.287 9.28012 118.064 11.3905H124.497ZM121.271 4.83576C126.527 4.85594 128.495 8.42758 128.434 13.2576V13.8461H118.003C118.227 16.6874 119.971 18.0472 122.63 18.0472C124.741 18.0472 126.384 17.3572 128.089 16.1599V19.2041C126.324 20.361 124.639 20.9899 122.001 20.9899C117.232 20.9899 113.985 18.0068 113.985 12.9532C113.985 8.3463 116.623 4.81558 121.271 4.83576ZM73.004 10.8428L75.9467 8.48867V5.24158H71.5629V20.7058H75.9467V13.2374L73.004 10.8428ZM141.301 4.93721C142.701 4.83576 143.736 5.30212 144.325 5.8503V10.0918C142.924 8.85412 140.733 8.6103 139.089 9.66576C138.338 10.1528 137.485 11.0861 136.877 12.4459V20.7058H132.818V5.24158H136.877V8.85412C137.831 6.45903 139.637 5.05885 141.301 4.93721ZM102.106 2.17721L106.002 1.00012V5.46467H110.711V8.12321H106.002V15.267C105.982 16.7888 106.774 17.6414 108.133 17.6616C109.229 17.6818 109.919 17.4183 110.873 17.0119V20.1374C109.595 20.7259 108.438 20.9899 107.179 20.9899C104.135 20.9899 102.106 19.0416 102.106 15.7132V8.12321H99.6505V5.46467H102.106V2.17721ZM31.2385 20.7058H35.2973V5.24158H31.2385V20.7058ZM10.0105 4.93721C12.182 4.8963 13.826 6.07339 14.7391 8.02176C16.1191 6.17485 17.9049 4.97758 20.1576 4.93721C23.6284 4.87612 25.6373 7.59576 25.6373 10.8019V20.7058H21.5785V11.4919C21.5785 9.74703 20.7462 8.02176 18.8387 8.02176C17.4789 8.02176 16.1191 8.99594 15.3075 10.437V20.7058H11.2689V11.4112C11.2689 9.64558 10.2745 8.02176 8.48873 8.02176C7.00727 8.02176 5.76909 9.07721 5.05891 10.437V20.7058H1.00018V5.24158H5.05891V7.39285C6.41873 5.83012 7.96073 4.97758 10.0105 4.93721Z" fill="black"/>
</g>
</svg>
